<svg width="43" height="42" viewBox="0 0 43 42" fill="none" xmlns="http://www.w3.org/2000/svg">
<g clip-path="url(#clip0_26_331)">
<ellipse cx="21.5" cy="21" rx="21.5" ry="21" fill="#ADADAD" fill-opacity="0.22"/>
<path d="M21.3484 31.078C19.4607 31.078 17.573 31.1883 15.7964 31.078C13.2425 30.8572 12.2432 29.9741 11.799 27.3247C11.2438 24.2338 11.0218 21.2533 11.3549 18.1624C11.4659 17.0585 11.577 15.8442 11.799 14.7404C12.1321 12.4222 13.1315 11.4287 15.4633 10.8767C16.4627 10.6559 17.351 10.5455 18.3503 10.6559C20.4601 10.7663 22.5698 10.7663 24.6795 10.5455C25.6789 10.4352 26.5672 10.5455 27.5665 10.6559C29.4542 10.8767 30.7867 11.8702 31.0087 13.7469C31.675 18.3832 32.2302 23.0195 31.3418 27.6559C30.8977 29.8637 29.8983 30.7468 27.6776 31.1884C25.6789 31.2987 23.5691 31.1883 21.3484 31.078ZM21.7925 16.2858C19.2386 16.1754 17.0178 18.052 16.7958 20.3702C16.5737 23.2403 18.3503 25.117 21.3484 25.3377C23.6802 25.4481 25.901 23.4611 26.123 20.9222C26.3451 18.604 24.3464 16.3962 21.7925 16.2858ZM28.6769 14.5196C28.5659 13.8572 28.2328 13.4157 27.4555 13.4157C26.5672 13.4157 26.123 13.9676 26.123 14.7404C26.123 15.5131 26.5672 16.065 27.4555 16.065C28.3438 15.9546 28.6769 15.4027 28.6769 14.5196Z" fill="white"/>
</g>
<defs>
<clipPath id="clip0_26_331">
<rect width="43" height="42" fill="white"/>
</clipPath>
</defs>
</svg>
