<svg width="2" height="278" viewBox="0 0 2 278" fill="none" xmlns="http://www.w3.org/2000/svg">
<path d="M-1.21081e-05 277C-1.21322e-05 277.552 0.447703 278 0.999988 278C1.55227 278 1.99999 277.552 1.99999 277L-1.21081e-05 277ZM0 -4.37114e-08L-8.64861e-08 1.97857L2 1.97857L2 4.37114e-08L0 -4.37114e-08ZM-2.59458e-07 5.93571L-4.32431e-07 9.89286L2 9.89286L2 5.93571L-2.59458e-07 5.93571ZM-6.05403e-07 13.85L-7.78375e-07 17.8071L2 17.8071L2 13.85L-6.05403e-07 13.85ZM-9.51347e-07 21.7643L-1.12432e-06 25.7214L2 25.7214L2 21.7643L-9.51347e-07 21.7643ZM-1.29729e-06 29.6786L-1.47026e-06 33.6357L2 33.6357L2 29.6786L-1.29729e-06 29.6786ZM-1.64324e-06 37.5929L-1.81621e-06 41.55L2 41.55L2 37.5929L-1.64324e-06 37.5929ZM-1.98918e-06 45.5071L-2.16215e-06 49.4643L2 49.4643L2 45.5071L-1.98918e-06 45.5071ZM-2.33512e-06 53.4214L-2.5081e-06 57.3786L2 57.3786L2 53.4214L-2.33512e-06 53.4214ZM-2.68107e-06 61.3357L-2.85404e-06 65.2928L2 65.2928L2 61.3357L-2.68107e-06 61.3357ZM-3.02701e-06 69.25L-3.19999e-06 73.2071L2 73.2071L2 69.25L-3.02701e-06 69.25ZM-3.37296e-06 77.1643L-3.54593e-06 81.1214L2 81.1214L2 77.1643L-3.37296e-06 77.1643ZM-3.7189e-06 85.0786L-3.89188e-06 89.0357L2 89.0357L2 85.0786L-3.7189e-06 85.0786ZM-4.06485e-06 92.9929L-4.23782e-06 96.95L2 96.95L2 92.9929L-4.06485e-06 92.9929ZM-4.41079e-06 100.907L-4.58376e-06 104.864L2 104.864L2 100.907L-4.41079e-06 100.907ZM-4.75674e-06 108.821L-4.92971e-06 112.779L2 112.779L2 108.821L-4.75674e-06 108.821ZM-5.10268e-06 116.736L-5.27565e-06 120.693L1.99999 120.693L1.99999 116.736L-5.10268e-06 116.736ZM-5.44863e-06 124.65L-5.6216e-06 128.607L1.99999 128.607L1.99999 124.65L-5.44863e-06 124.65ZM-5.79457e-06 132.564L-5.96754e-06 136.521L1.99999 136.521L1.99999 132.564L-5.79457e-06 132.564ZM-6.14051e-06 140.479L-6.31349e-06 144.436L1.99999 144.436L1.99999 140.479L-6.14051e-06 140.479ZM-6.48646e-06 148.393L-6.65943e-06 152.35L1.99999 152.35L1.99999 148.393L-6.48646e-06 148.393ZM-6.8324e-06 156.307L-7.00538e-06 160.264L1.99999 160.264L1.99999 156.307L-6.8324e-06 156.307ZM-7.17835e-06 164.221L-7.35132e-06 168.179L1.99999 168.179L1.99999 164.221L-7.17835e-06 164.221ZM-7.52429e-06 172.136L-7.69726e-06 176.093L1.99999 176.093L1.99999 172.136L-7.52429e-06 172.136ZM-7.87024e-06 180.05L-8.04321e-06 184.007L1.99999 184.007L1.99999 180.05L-7.87024e-06 180.05ZM-8.21618e-06 187.964L-8.38915e-06 191.921L1.99999 191.921L1.99999 187.964L-8.21618e-06 187.964ZM-8.56212e-06 195.879L-8.7351e-06 199.836L1.99999 199.836L1.99999 195.879L-8.56212e-06 195.879ZM-8.90807e-06 203.793L-9.08104e-06 207.75L1.99999 207.75L1.99999 203.793L-8.90807e-06 203.793ZM-9.25401e-06 211.707L-9.42698e-06 215.664L1.99999 215.664L1.99999 211.707L-9.25401e-06 211.707ZM-9.59996e-06 219.621L-9.77293e-06 223.578L1.99999 223.578L1.99999 219.621L-9.59996e-06 219.621ZM-9.9459e-06 227.536L-1.01189e-05 231.493L1.99999 231.493L1.99999 227.536L-9.9459e-06 227.536ZM-1.02918e-05 235.45L-1.04648e-05 239.407L1.99999 239.407L1.99999 235.45L-1.02918e-05 235.45ZM-1.06378e-05 243.364L-1.08108e-05 247.321L1.99999 247.321L1.99999 243.364L-1.06378e-05 243.364ZM-1.09837e-05 251.278L-1.11567e-05 255.236L1.99999 255.236L1.99999 251.278L-1.09837e-05 251.278ZM-1.13297e-05 259.193L-1.15026e-05 263.15L1.99999 263.15L1.99999 259.193L-1.13297e-05 259.193ZM-1.16756e-05 267.107L-1.18486e-05 271.064L1.99999 271.064L1.99999 267.107L-1.16756e-05 267.107ZM-1.20216e-05 275.021L-1.21081e-05 277L1.99999 277L1.99999 275.021L-1.20216e-05 275.021Z" fill="white"/>
</svg>
