<svg width="43" height="43" viewBox="0 0 43 43" fill="none" xmlns="http://www.w3.org/2000/svg">
<g clip-path="url(#clip0_26_326)">
<circle cx="21.5" cy="21.5" r="21.5" fill="#ADADAD" fill-opacity="0.22"/>
<path d="M18.9435 27.1737C18.8334 25.7416 18.8334 24.3095 18.7232 22.7672C18.7232 21.9961 18.3927 21.4453 17.5114 21.4453C16.9606 21.4453 16.4098 21.5554 16.2997 20.7843C16.1895 19.7929 15.9692 18.6913 16.2997 17.6998C16.2997 17.5897 16.7403 17.3694 16.9606 17.3694C18.6131 17.6998 18.9435 16.8185 18.9435 15.4966C18.9435 11.9715 21.9179 10.0987 25.7735 10.319C26.8751 10.4292 26.8751 11.3105 26.8751 12.0816C26.765 12.8527 27.2056 13.9544 25.7735 13.9544C24.5617 13.8442 23.6805 14.2849 23.6805 15.7169C23.6805 16.7084 23.7906 17.4795 25.0024 17.5897C26.765 17.6998 26.4345 18.9116 26.4345 20.1234C26.5446 21.4453 25.8837 21.8859 24.6719 21.8859C23.4601 21.8859 23.2398 22.5469 23.2398 23.6485C23.2398 26.0721 23.2398 28.3854 23.1296 30.809C23.0195 32.3512 22.689 32.4614 20.5959 32.3512C19.1639 32.3512 18.9435 31.6903 19.0537 30.4785C18.8334 29.4871 18.8334 28.3854 18.9435 27.1737Z" fill="white"/>
</g>
<defs>
<clipPath id="clip0_26_326">
<rect width="43" height="43" fill="white"/>
</clipPath>
</defs>
</svg>
