<svg width="43" height="43" viewBox="0 0 43 43" fill="none" xmlns="http://www.w3.org/2000/svg">
<g clip-path="url(#clip0_26_336)">
<circle cx="21.5" cy="21.5" r="21.5" fill="#ADADAD" fill-opacity="0.22"/>
<path d="M22.2589 32.0685C21.2141 31.964 20.0647 32.0685 19.0199 31.6506C17.3481 30.9192 15.6763 30.9192 14.0045 31.964C13.5866 32.173 13.0642 32.4865 12.6462 31.964C12.3328 31.6506 12.5417 31.1281 12.6462 30.8147C13.5866 28.725 13.0642 26.9487 12.2283 24.859C10.5565 20.784 10.7655 16.8136 14.0045 13.47C17.2436 10.231 21.3186 9.70854 25.6025 10.8579C26.9608 11.2758 28.1102 12.1117 29.155 13.1566C34.1703 18.4853 34.3793 27.4712 26.6473 31.2327C25.1845 31.9641 23.7217 31.964 22.2589 32.0685ZM14.0045 30.7102C16.1987 29.0384 18.2885 30.1878 20.3782 30.5012C23.4083 30.9192 26.3339 30.8147 28.8416 28.516C31.4537 26.0083 32.1851 21.7244 30.9313 18.2764C29.364 13.9924 25.8115 11.6938 21.841 11.6938C17.2436 11.6938 12.4372 15.4552 12.6462 19.9481C12.7507 21.7244 12.8552 23.5007 13.7956 25.068C14.8404 26.7397 15.0494 28.4115 14.0045 30.7102Z" fill="white"/>
<path d="M22.8859 23.6051C22.9904 23.5006 23.1994 23.3961 23.3039 23.2916C23.7218 22.6647 23.9308 21.8288 24.9756 22.0378C25.916 22.3513 26.7519 23.0826 27.0654 24.023C27.3788 24.9634 26.7519 25.5903 26.125 26.1127C24.7667 27.1576 23.4083 26.8442 22.1545 26.2172C19.3334 24.6499 17.7661 22.0378 16.8257 19.0077C16.5123 17.8584 16.9302 16.918 18.0796 16.2911C18.811 15.8731 19.4379 15.8731 19.8558 16.5C20.4827 17.3359 21.8411 18.0673 20.6917 19.4256C20.1693 20.0526 20.3782 20.6795 20.7962 21.2019C21.3186 22.1423 21.8411 23.0827 22.8859 23.6051Z" fill="white"/>
</g>
<defs>
<clipPath id="clip0_26_336">
<rect width="43" height="43" fill="white"/>
</clipPath>
</defs>
</svg>
